<?xml version="1.0" encoding="UTF-8"?> <svg xmlns="http://www.w3.org/2000/svg" width="507" height="123" viewBox="0 0 507 123" fill="none"><path d="M79.0966 95.0004L44.0938 122.274V54.5465L79.0966 27.2734V95.0004Z" fill="#F59C3C"></path><path d="M35.0029 67.727L0 95.0001V27.2731L35.0029 0V67.727Z" fill="#F59C3C"></path><path d="M128.729 95.3457L110.69 76.8175V95.3457H97.758V54.9206H110.69V71.058L128.457 54.9206H144.214L123.73 73.2858L145.355 95.3457H128.729ZM177.851 86.3805C174.373 92.303 171.167 95.3457 162.963 95.3457H153.183V85.4024H160.355C161.115 85.4024 161.441 85.1308 161.441 84.5331V84.4787C161.441 83.8811 161.224 83.392 160.626 82.4684L143.402 54.9206H158.127L170.57 75.5678L182.252 54.9206H196.379L177.851 86.3805ZM229.195 95.3457V64.5379H213.601C213.601 75.5678 213.003 83.2834 211.482 87.5215C209.798 91.9769 206.701 95.3457 198.496 95.3457H194.149V84.8047H194.801C197.735 84.8047 199.094 83.4464 199.854 81.7077C200.995 78.9366 201.213 75.0245 201.213 54.9206H242.181V95.3457H229.195ZM286.627 95.3457L283.476 88.3365H262.122L259.025 95.3457H246.039L264.404 54.9206H281.52L300.482 95.3457H286.627ZM266.089 79.4256H279.509L272.717 64.3205L266.089 79.4256ZM304.33 95.3457V54.9206H339.811V64.5379H317.316V95.3457H304.33ZM379.566 95.3457V69.591L357.723 95.3457H344.737V54.9206H357.723V80.6753L379.566 54.9206H392.498V95.3457H379.566ZM435.405 95.3457V79.5886H413.943V95.3457H400.957V54.9206H413.943V69.5367H435.405V54.9206H448.391V95.3457H435.405ZM492.828 95.3457L489.676 88.3365H468.323L465.226 95.3457H452.24L470.605 54.9206H487.72L506.683 95.3457H492.828ZM472.289 79.4256H485.71L478.918 64.3205L472.289 79.4256Z" fill="white"></path></svg> 